<svg viewBox="0 0 720 300" xmlns="http://www.w3.org/2000/svg" role="img" aria-label="Zickzack-Pfad den Hang hinunter mit markierten Punkten"><defs>
      <linearGradient id="sky" x1="0" y1="0" x2="0" y2="1">
        <stop offset="0%" stop-color="#8FC1DE"/>
        <stop offset="100%" stop-color="#F6E8C3"/>
      </linearGradient>
      <radialGradient id="sun" cx="50%" cy="50%" r="50%">
        <stop offset="0%" stop-color="#FFF3D6"/>
        <stop offset="55%" stop-color="#CE9A4A"/>
        <stop offset="100%" stop-color="#CE9A4A" stop-opacity="0"/>
      </radialGradient>
    </defs>
    <rect width="720" height="300" fill="url(#sky)"/>
    <circle cx="600" cy="70" r="58" fill="url(#sun)"/>
    <circle cx="600" cy="70" r="22" fill="#FFF6E2"/>
    <path d="M0,210 L120,150 L260,195 L400,140 L520,190 L640,150 L720,185 L720,300 L0,300 Z" fill="#6FA05F" opacity="0.9"/>
    <path d="M0,240 L160,205 L320,235 L480,200 L640,232 L720,215 L720,300 L0,300 Z" fill="#436B48"/>
  <path d="M120,150 L220,175 L160,205 L280,225 L220,255 L360,275" fill="none" stroke="#6B4E30" stroke-width="5" stroke-linecap="round" stroke-dasharray="2 14" opacity="0.9"/>
  <circle cx="120" cy="150" r="4" fill="#CE9A4A"/>
  <circle cx="160" cy="205" r="4" fill="#CE9A4A"/>
  <circle cx="220" cy="255" r="4" fill="#CE9A4A"/>
  <circle cx="360" cy="275" r="4" fill="#CE9A4A"/></svg>