<svg viewBox="0 0 720 300" xmlns="http://www.w3.org/2000/svg" role="img" aria-label="Sitzbank, die schräg an der Hauswand lehnt"><defs>
      <linearGradient id="sky" x1="0" y1="0" x2="0" y2="1">
        <stop offset="0%" stop-color="#2E4034"/>
        <stop offset="55%" stop-color="#6a5a3f"/>
        <stop offset="100%" stop-color="#CE9A4A"/>
      </linearGradient>
    </defs>
    <rect width="720" height="300" fill="url(#sky)"/>
    <circle cx="588" cy="86" r="2" fill="#F7F2E9" opacity="0.8"/>
    <circle cx="622" cy="130" r="1.6" fill="#F7F2E9" opacity="0.7"/>
    <circle cx="540" cy="60" r="1.4" fill="#F7F2E9" opacity="0.6"/>
    <circle cx="80" cy="70" r="1.6" fill="#F7F2E9" opacity="0.6"/>
    <circle cx="150" cy="100" r="2" fill="#F7F2E9" opacity="0.7"/>
    <path d="M0,210 L120,150 L260,195 L400,140 L520,190 L640,150 L720,185 L720,300 L0,300 Z" fill="#26392b" opacity="0.85"/>
    <path d="M0,240 L160,205 L320,235 L480,200 L640,232 L720,215 L720,300 L0,300 Z" fill="#16211c"/>
  <g transform="translate(230,120)">
    <rect x="-40" y="0" width="400" height="110" fill="#F7F2E9" opacity="0.92"/>
    <rect x="20" y="70" width="260" height="16" rx="2" fill="#6B4E30"/>
    <rect x="20" y="86" width="16" height="24" fill="#6B4E30"/>
    <rect x="264" y="86" width="16" height="24" fill="#6B4E30"/>
    <path d="M30,70 L46,14 L60,14 L60,70Z" fill="#9C7A4D"/>
    <path d="M100,70 L112,18 L126,18 L124,70Z" fill="#9C7A4D"/>
    <path d="M170,70 L178,20 L192,20 L194,70Z" fill="#9C7A4D"/>
  </g></svg>